<svg width="73" height="72" viewBox="0 0 73 72" fill="none" xmlns="http://www.w3.org/2000/svg">
<path d="M72.659 10.6975C72.3021 12.333 71.5462 13.7524 70.2549 14.8633C68.6906 16.2108 66.8849 16.7868 64.7957 16.6325C63.0425 16.5091 61.5727 15.7994 60.3024 14.6576C60.061 14.4416 59.8615 14.3902 59.5675 14.565C57.4364 15.8817 55.3052 17.188 53.174 18.484C52.9011 18.6486 52.8801 18.8029 52.9745 19.0703C54.2763 22.8453 52.2082 26.8157 48.5652 28.0912C46.581 28.7906 44.6388 28.6775 42.7386 27.7518C39.5681 26.2088 38.0774 22.7219 38.9907 19.3378C39.0642 19.0703 39.1587 18.8132 39.2952 18.5766C39.4841 18.2269 39.3477 18.0109 39.0537 17.7949C36.7441 16.0977 34.4344 14.4108 32.1353 12.7033C31.7993 12.4461 31.5369 12.4667 31.2114 12.7136C28.7968 14.5445 26.1932 14.781 23.4426 13.5364C23.1067 13.3821 22.9282 13.4336 22.6867 13.7113C19.5267 17.4143 16.3562 21.107 13.1752 24.7894C12.9862 25.0054 12.9862 25.1391 13.1542 25.3551C14.1516 26.5997 14.6135 28.0398 14.624 29.6032C14.6345 31.8353 13.7631 33.6971 12.0204 35.1474C10.0362 36.7932 7.72656 37.2252 5.28044 36.5669C3.08628 35.9806 1.50102 34.5611 0.566665 32.5039C0.325202 31.969 0.167729 31.4136 0.03125 30.8479C0.03125 30.0558 0.03125 29.2741 0.03125 28.4821C0.556169 26.1368 1.80547 24.3059 4.06262 23.2362C6.1833 22.2281 8.33546 22.1973 10.4666 23.2053C10.8131 23.3699 11.0335 23.3493 11.275 23.0613C12.2304 21.9299 13.1962 20.8087 14.1726 19.6772C15.5059 18.124 16.8496 16.5708 18.1829 15.0176C19.0438 14.0096 19.9047 12.9913 20.776 11.9935C20.965 11.7672 20.986 11.6232 20.7865 11.3867C20.5451 11.0986 20.3351 10.7798 20.1671 10.4403C19.4952 9.13401 19.2538 7.77625 19.4112 6.31563C19.5897 4.60815 20.3351 3.18867 21.5529 1.98521C22.6342 0.915459 23.9675 0.318867 25.4373 0C26.2457 0 27.0436 0 27.8519 0C29.3007 0.277723 30.592 0.8846 31.6838 1.87206C32.7757 2.86981 33.5211 4.08356 33.815 5.50304C34.13 6.98423 34.0775 8.4757 33.4266 9.88489C33.2481 10.2655 33.3636 10.4815 33.6785 10.6975C34.3504 11.1604 35.0013 11.6438 35.6627 12.1272C37.311 13.341 38.9592 14.5548 40.597 15.7788C40.8804 15.9948 41.1009 16.0359 41.4158 15.7788C44.2294 13.4953 48.3973 13.6496 51.0848 16.1491C51.3893 16.4268 51.6098 16.4474 51.9457 16.2417C54.0139 14.9559 56.0821 13.6804 58.1607 12.4255C58.5072 12.2198 58.5492 12.045 58.4337 11.6849C57.8248 9.82318 57.9193 7.98197 58.8641 6.25392C60.4284 3.40468 62.9165 2.07778 66.213 2.3555C68.1972 2.53037 69.8244 3.43554 71.0947 4.95787C71.9241 5.94533 72.3965 7.08709 72.6695 8.32141C72.659 9.12372 72.659 9.90546 72.659 10.6975ZM50.7594 21.4053C50.7804 18.8749 48.6387 16.684 46.0666 16.7045C43.5155 16.7251 41.3319 18.5355 41.2899 21.3024C41.2479 23.8636 43.1901 25.962 46.0036 25.9723C48.6807 25.9928 50.6229 24.0591 50.7594 21.4053ZM26.6551 11.7878C29.2692 11.6644 31.3269 9.89518 31.3689 7.17966C31.4214 4.63901 29.4582 2.53037 26.6971 2.52008C23.936 2.5098 21.9519 4.46414 21.9204 7.09737C21.8994 9.76146 23.8416 11.6335 26.6551 11.7878ZM12.0204 29.6547C11.9049 26.8877 9.84723 25.0054 7.21214 25.0465C4.43007 25.0877 2.50887 27.2169 2.56136 29.7267C2.62435 32.5965 4.892 34.3863 7.39061 34.2937C10.1412 34.2011 11.9364 32.2056 12.0204 29.6547ZM65.3836 14.1536C68.0502 14.0507 70.1289 12.1581 70.1079 9.44259C70.0869 6.72707 67.9557 4.84473 65.3521 4.8653C62.5911 4.89616 60.6804 6.90194 60.6804 9.48374C60.6699 12.2507 62.7485 14.0302 65.3836 14.1536Z" fill="#CCCCCC"/>
<path d="M58.8007 71.1797C58.1708 70.7888 57.9714 70.1922 57.9714 69.5031C57.9714 58.3736 57.9609 47.2543 57.9819 36.1248C57.9819 34.4791 58.5383 33.0596 60.197 32.2984C60.7639 32.0413 61.3728 31.959 61.9818 31.959C64.1654 31.959 66.3596 31.959 68.5432 31.959C70.7584 31.959 71.8922 32.7407 72.6586 34.7671C72.6586 46.7709 72.6586 58.7644 72.6691 70.7682C72.6691 71.118 72.5956 71.19 72.2387 71.19C67.7559 71.1694 63.2836 71.1797 58.8007 71.1797ZM60.617 52.0168C60.617 54.794 60.617 57.5712 60.617 60.3485C60.617 62.9508 60.6275 65.5532 60.6065 68.1659C60.6065 68.6287 60.7639 68.7933 61.2469 68.7933C64.0079 68.7727 66.769 68.7727 69.5406 68.7933C70.0235 68.7933 70.2125 68.5979 70.1915 68.1556C70.1915 68.0013 70.1915 67.847 70.1915 67.6927C70.1915 57.2421 70.1915 46.7915 70.1915 36.3306C70.1915 36.1763 70.2125 36.022 70.181 35.8677C70.0235 35.0139 69.7925 34.4894 68.7007 34.4894C66.4751 34.4894 64.2599 34.4894 62.0342 34.4894C61.8033 34.4894 61.5828 34.4996 61.3623 34.5922C60.701 34.8699 60.596 35.4254 60.596 36.0323C60.617 41.3604 60.617 46.6886 60.617 52.0168Z" fill="#CCCCCC"/>
<path d="M20.0625 71.1794C19.4431 70.7885 19.2331 70.1919 19.2331 69.5028C19.2331 59.155 19.2226 48.8072 19.2436 38.4595C19.2436 37.7291 19.3486 36.9988 19.716 36.32C20.4194 35.0136 21.5427 34.3553 23.023 34.3348C25.4376 34.3039 27.8523 34.2936 30.2669 34.3348C32.503 34.3759 33.9623 35.8879 33.9623 38.0892C33.9623 48.6221 33.9623 59.1653 33.9728 69.6982C33.9728 70.3153 33.8153 70.8091 33.3009 71.1691C28.8811 71.1794 24.4718 71.1794 20.0625 71.1794ZM31.4007 53.2097C31.4007 48.2929 31.4007 43.3659 31.4007 38.4492C31.4007 37.2457 31.0018 36.8548 29.7525 36.8548C27.6738 36.8548 25.5846 36.8548 23.5059 36.8548C22.2881 36.8548 21.8787 37.256 21.8682 38.4697C21.8682 48.3649 21.8682 58.2498 21.8577 68.145C21.8577 68.6387 22.0047 68.793 22.5191 68.793C25.1962 68.7724 27.8733 68.7827 30.5503 68.7827C31.3902 68.7827 31.3902 68.7827 31.3902 67.9804C31.4007 63.0431 31.4007 58.1264 31.4007 53.2097Z" fill="#CCCCCC"/>
<path d="M39.3785 71.179C38.8326 70.8087 38.7066 70.2841 38.7066 69.6567C38.7171 61.5513 38.7486 53.4356 38.6856 45.3302C38.6751 43.2936 40.0819 41.4421 42.6015 41.4421C44.8901 41.4421 47.1893 41.4318 49.4779 41.4421C51.0527 41.4524 52.2705 42.1004 53.0054 43.5199C53.2993 44.0856 53.3623 44.7027 53.3623 45.3199C53.3728 53.4253 53.3623 61.5307 53.3728 69.6464C53.3728 70.2841 53.2049 70.8293 52.6169 71.179C48.1971 71.179 43.7878 71.179 39.3785 71.179ZM50.7902 56.83C50.7902 53.1064 50.7902 49.3932 50.7902 45.6696C50.7902 44.3736 50.4438 43.993 49.1315 43.9724C47.0528 43.9416 44.9636 43.9416 42.885 43.9724C41.6251 43.9827 41.2682 44.3736 41.2682 45.5976C41.2682 53.1064 41.2682 60.6153 41.2577 68.1241C41.2577 68.6487 41.4257 68.7927 41.9506 68.7927C44.6592 68.7721 47.3783 68.7824 50.0868 68.7824C50.7902 68.7824 50.7902 68.7824 50.7902 68.1035C50.7902 64.3388 50.7902 60.5844 50.7902 56.83Z" fill="#CCCCCC"/>
<path d="M0.010499 53.6934C0.472428 52.3871 1.2913 51.4305 2.70858 51.0602C2.97104 50.9882 3.223 50.9882 3.48546 50.9882C6.00507 50.9882 8.52468 51.0396 11.0443 50.9676C12.64 50.9264 14.4353 52.4899 14.5612 53.9917C14.6137 54.6706 14.6977 55.3494 14.6977 56.0386C14.6977 60.4925 14.6977 64.9566 14.6977 69.4105C14.6977 70.1305 14.5298 70.7682 13.8684 71.19C9.37505 71.19 4.87125 71.19 0.377942 71.2002C0.0629909 71.2002 0 71.1385 0 70.8299C0.0104984 65.1109 0.010499 59.4021 0.010499 53.6934ZM12.0521 61.5211C12.0521 59.3096 12.0731 57.0981 12.0416 54.8866C12.0311 53.786 11.5587 53.4774 10.6454 53.4465C8.3882 53.3745 6.13105 53.4054 3.8739 53.4362C3.41197 53.4465 2.87656 53.5597 2.68758 54.1151C2.5721 54.4751 2.46712 54.8351 2.46712 55.226C2.46712 59.5153 2.46712 63.7943 2.46712 68.0836C2.46712 68.6904 2.5616 68.7625 3.17051 68.7625C5.90009 68.7625 8.62967 68.7625 11.3592 68.7625C12.0101 68.7625 12.0416 68.7316 12.0416 68.0939C12.0521 65.9132 12.0521 63.712 12.0521 61.5211Z" fill="#CCCCCC"/>
</svg>
