<svg width="85" height="67" viewBox="0 0 85 67" fill="none" xmlns="http://www.w3.org/2000/svg">
<path d="M0 12.2172C0.492088 11.5939 1.1482 11.5064 1.90274 11.5173C6.51743 11.5392 11.1212 11.5283 15.7359 11.5283C16.8841 11.5283 17.3215 11.9547 17.3215 13.1139C17.3215 14.5136 17.2778 15.9242 17.3324 17.324C17.398 19.2158 18.1526 20.7467 19.9132 21.6215C22.2533 22.7916 24.9653 21.7309 26.0369 19.4454C26.365 18.7346 26.4525 17.9801 26.4634 17.2146C26.4853 15.8477 26.4634 14.4808 26.4743 13.1139C26.4743 12.0641 26.9992 11.5392 28.049 11.5392C36.9831 11.5392 45.9063 11.5392 54.8405 11.5392C55.6825 11.5392 55.6716 11.5392 55.6934 10.7081C55.7372 9.16623 55.5075 7.60249 55.8575 6.07155C56.4917 3.37053 58.0773 1.45685 60.7455 0.625772C63.7309 -0.303728 66.3991 0.35239 68.5643 2.65974C69.7781 3.9501 70.4123 5.51385 70.4561 7.2963C70.4779 8.49918 70.4889 9.70206 70.4561 10.9049C70.4451 11.4189 70.631 11.5501 71.1231 11.5501C75.1145 11.5283 79.1059 11.5501 83.0973 11.5283C83.8518 11.5283 84.5079 11.6157 85 12.2281C85 26.4112 85 40.5833 85 54.7664C84.5079 55.3788 83.8518 55.4772 83.0973 55.4662C78.4826 55.4444 73.8788 55.4553 69.2641 55.4553C68.105 55.4553 67.6785 55.0288 67.6785 53.8806C67.6785 52.459 67.7222 51.0375 67.6676 49.6159C67.6129 48.2271 67.1864 46.9586 66.0929 46.0291C63.4794 43.8202 59.7395 44.9574 58.7116 48.2052C58.5585 48.6973 58.5147 49.2331 58.5147 49.769C58.5257 51.114 58.4929 52.47 58.5257 53.815C58.5475 54.7445 58.0117 55.4772 56.8416 55.4772C47.9512 55.4444 39.0609 55.4553 30.1705 55.4553C29.3284 55.4553 29.3503 55.4553 29.3175 56.2864C29.2738 57.8501 29.5143 59.4248 29.1425 60.9667C28.5411 63.4927 27.0758 65.3627 24.6263 66.2484C21.5425 67.3529 18.7321 66.7515 16.4467 64.3238C15.2329 63.0444 14.5877 61.4697 14.5549 59.6873C14.533 58.5063 14.5221 57.3143 14.5658 56.1333C14.5877 55.5647 14.3799 55.4334 13.8441 55.4334C9.87457 55.4553 5.90506 55.4334 1.92461 55.4553C1.17008 55.4553 0.51396 55.3678 0.0218719 54.7555C1.33455e-06 40.5724 0 26.4002 0 12.2172ZM43.8724 45.7229C43.8724 47.8225 43.8833 49.9111 43.8614 52.0107C43.8505 52.5137 44.0145 52.6668 44.5176 52.6668C48.0169 52.6449 51.5161 52.6559 55.0154 52.6559C55.0482 52.6559 55.092 52.6559 55.1248 52.6559C55.5294 52.6996 55.6716 52.5028 55.6716 52.1091C55.6606 51.2124 55.6606 50.3267 55.6716 49.43C55.6825 48.6317 55.8028 47.8443 56.0543 47.0679C57.2244 43.4921 61.0736 41.2394 64.9337 42.2564C68.1159 43.0875 70.4561 46.0072 70.4451 49.3425C70.4451 50.1845 70.4451 51.0156 70.4451 51.8576C70.4451 52.6449 70.4451 52.6449 71.2215 52.6449C74.6333 52.6449 78.0342 52.6449 81.446 52.6449C82.2334 52.6449 82.2334 52.6449 82.2334 51.8576C82.2334 39.5882 82.2334 27.3297 82.2334 15.0604C82.2334 14.3058 82.2334 14.2949 81.4788 14.2949C77.3562 14.2949 73.2446 14.2949 69.122 14.2949C68.1925 14.2949 67.6676 13.7591 67.6566 12.8405C67.6457 11.1783 67.6676 9.5271 67.6457 7.86493C67.6129 5.40449 66.1038 3.38146 63.545 3.08621C61.9703 2.91125 60.6909 3.44708 59.6411 4.58435C58.7881 5.50291 58.5147 6.65112 58.4929 7.854C58.471 9.41774 58.4929 10.9924 58.4819 12.5562C58.4819 13.7919 57.9898 14.2839 56.7651 14.2839C52.719 14.2839 48.673 14.2839 44.6269 14.2839C43.8724 14.2839 43.8614 14.2839 43.8614 15.0275C43.8614 19.1502 43.8614 23.2618 43.8614 27.3844C43.8614 28.3249 43.3475 28.8388 42.418 28.8388C40.9636 28.8498 39.4983 28.8169 38.0439 28.8498C37.3221 28.8716 36.5895 28.97 35.9334 29.309C34.4352 30.1401 33.4729 31.343 33.3198 33.1036C33.1995 34.5798 33.7026 35.8155 34.7742 36.8216C35.7912 37.7729 37.0378 38.0901 38.3829 38.0901C39.717 38.0901 41.0401 38.0901 42.3742 38.0901C43.3912 38.0901 43.8724 38.5712 43.8724 39.5882C43.8833 41.644 43.8724 43.678 43.8724 45.7229ZM2.73382 33.4863C2.73382 39.6101 2.73382 45.7338 2.73382 51.8576C2.73382 52.6559 2.73382 52.6668 3.55397 52.6668C7.63283 52.6668 11.7117 52.6668 15.8015 52.6668C16.7966 52.6668 17.2996 53.1808 17.3106 54.1868C17.3106 54.4821 17.2996 54.7664 17.3106 55.0616C17.398 56.8222 17.1575 58.5828 17.4855 60.3434C17.9667 62.8913 20.7442 64.5863 23.3468 63.6786C25.3261 63.0007 26.4197 61.3604 26.4415 59.1952C26.4634 57.5877 26.4415 55.9911 26.4415 54.3837C26.4415 53.1808 26.9555 52.6668 28.1693 52.6668C32.2372 52.6668 36.2942 52.6668 40.3622 52.6668C41.0729 52.6668 41.0729 52.6668 41.0729 51.9341C41.0729 48.5114 41.0729 45.0777 41.0729 41.655C41.0729 40.8895 41.0729 40.9114 40.2747 40.8786C38.9187 40.8239 37.5518 41.0207 36.1958 40.7145C32.4778 39.8397 29.7768 36.2639 30.586 32.0101C31.2203 28.6529 34.2821 26.0394 37.847 26.0941C38.7547 26.105 39.6732 26.0831 40.5809 26.0941C40.9527 26.0941 41.0948 25.9628 41.0948 25.5801C41.0839 21.9933 41.0839 18.3956 41.0948 14.8088C41.0948 14.437 40.9636 14.2949 40.5809 14.2949C36.9941 14.3058 33.3964 14.3058 29.8096 14.2949C29.4378 14.2949 29.2847 14.437 29.2956 14.8088C29.3066 15.7165 29.2956 16.635 29.2956 17.5427C29.2956 18.505 29.1207 19.4345 28.7598 20.3093C27.3382 23.7648 23.6093 25.766 19.8038 24.6397C16.7419 23.732 14.5549 20.9326 14.533 17.7067C14.5221 16.7991 14.5002 15.8805 14.5439 14.9729C14.5658 14.4261 14.358 14.2949 13.855 14.3058C10.4432 14.3277 7.04233 14.3168 3.63052 14.3168C2.75569 14.3168 2.75569 14.3168 2.75569 15.1697C2.73382 21.2716 2.73382 27.3844 2.73382 33.4863Z" fill="#CCCCCC"/>
</svg>
