<svg width="89" height="68" viewBox="0 0 89 68" fill="none" xmlns="http://www.w3.org/2000/svg">
<path d="M0 22.6137C0.524041 21.577 1.35567 21.1099 2.52907 21.1099C7.27961 21.1327 12.0188 21.1213 16.7693 21.1099C17.9541 21.1099 18.8199 21.5314 19.4579 22.5795C20.6313 24.5276 21.873 26.4301 23.092 28.3553C23.1831 28.492 23.2287 28.7199 23.4337 28.6857C23.6274 28.6515 23.6388 28.4237 23.6958 28.2756C25.1881 24.4478 26.6919 20.62 28.1957 16.8037C28.7767 15.3227 29.3463 13.8417 29.9273 12.3607C30.4058 11.1531 31.1235 10.6177 32.2513 10.6291C33.1969 10.6291 34.0513 11.1873 34.3475 12.0873C34.8145 13.4543 35.2361 14.8442 35.6804 16.234C36.1816 17.8289 36.6715 19.4239 37.1727 21.0074C37.7765 22.9782 38.3917 24.9491 39.0069 26.9199C39.4739 28.4237 39.9524 29.9161 40.4309 31.4084C40.4765 31.5338 40.4992 31.7046 40.6587 31.7958C41.0119 31.0667 41.0916 30.2806 41.2853 29.5173C41.8093 27.4667 42.265 25.3934 42.7435 23.3314C43.0967 21.8276 43.9511 21.1327 45.489 21.1213C48.9067 21.1099 52.3243 21.1099 55.742 21.1213C57.428 21.1327 58.5445 22.4884 58.1571 24.0035C57.9179 24.9605 56.9837 25.6896 55.9812 25.701C53.3041 25.7123 50.6269 25.7123 47.9497 25.701C46.6282 25.701 46.9586 25.6668 46.6624 26.749C46.0131 29.2211 45.4776 31.7274 44.8852 34.2109C44.3498 36.4324 43.803 38.6539 43.2675 40.8754C42.9258 42.2994 42.1169 42.9601 40.7613 42.9259C39.9069 42.9032 39.0638 42.2994 38.7904 41.4564C37.9816 38.9273 37.2069 36.3982 36.4095 33.8692C35.7145 31.6249 34.9968 29.392 34.2905 27.1592C33.6981 25.3022 33.1285 23.4339 32.5361 21.577C32.3994 21.1213 32.2513 20.677 32.1146 20.2213C32.0804 20.1188 32.1032 19.9707 31.9323 19.9935C31.8184 20.0049 31.8184 20.1302 31.7842 20.2099C31.226 21.6339 30.6678 23.0694 30.1096 24.4934C28.9476 27.4326 27.797 30.3831 26.6349 33.3223C26.4641 33.7666 26.3046 34.2109 26.1223 34.6552C25.7691 35.5438 25.1426 36.1704 24.1742 36.2843C23.1717 36.3982 22.4198 35.9425 21.8844 35.0995C20.0275 32.1489 18.1478 29.2098 16.3022 26.2478C16.063 25.8604 15.801 25.7123 15.3453 25.7123C11.1302 25.7237 6.91506 25.6896 2.69995 25.7351C1.49238 25.7465 0.615178 25.3478 0 24.3225C0 23.7529 0 23.1833 0 22.6137Z" fill="#CCCCCC"/>
<path d="M88.973 66.5869C88.449 67.5553 87.6743 67.9996 86.5237 67.9996C58.5331 67.9768 30.5311 67.9768 2.54046 67.9996C1.23036 67.9996 0.216452 67.2249 0 66.1199C0 65.8578 0 65.5844 0 65.3224C0.387335 64.0351 1.18479 63.4313 2.54046 63.3857C2.67716 63.3857 2.80248 63.3857 2.93918 63.3857C30.6678 63.3857 58.3964 63.3857 86.125 63.3857C86.3756 63.3857 86.6148 63.3857 86.8655 63.4085C87.8794 63.5111 88.5971 64.0123 88.973 64.9806C88.973 65.5275 88.973 66.0515 88.973 66.5869Z" fill="#CCCCCC"/>
<path d="M44.5436 0.022784C56.813 0.022784 69.071 0.0227851 81.3404 0.0113929C82.5138 0.0113929 83.2771 0.512649 83.7214 1.57212C83.8695 1.92528 83.8581 2.27844 83.8581 2.6316C83.8581 11.8593 83.8581 21.0869 83.8581 30.3146C83.8581 38.46 83.8581 46.6055 83.8581 54.7509C83.8581 56.3572 83.072 57.2458 81.4771 57.428C81.2379 57.4508 80.9872 57.4622 80.7366 57.4622C72.4773 57.4622 64.2179 57.4622 55.9586 57.4622C55.2637 57.4622 54.5574 57.4964 53.9308 57.0635C53.0308 56.4483 52.6549 55.5369 52.9169 54.5686C53.1675 53.68 54.1359 52.8712 55.1498 52.8712C62.8737 52.894 70.609 52.8826 78.3329 52.8826C79.267 52.8826 79.267 52.8826 79.267 51.9598C79.267 36.4892 79.267 21.0072 79.267 5.53661C79.267 4.61384 79.267 4.60245 78.3329 4.60245C55.8105 4.60245 33.2995 4.60245 10.7772 4.60245C9.80883 4.60245 9.80883 4.60245 9.80883 5.57078C9.80883 8.87452 9.82022 12.1783 9.79744 15.482C9.79744 16.1769 9.82022 16.8832 9.33036 17.487C8.74935 18.1933 8.00886 18.5693 7.13166 18.3642C6.2089 18.1478 5.53676 17.5668 5.3317 16.587C5.27474 16.325 5.26335 16.063 5.26335 15.7896C5.26335 11.4036 5.26335 7.01759 5.25195 2.6316C5.25195 1.62908 5.54815 0.820238 6.43674 0.262021C6.83547 0.0113925 7.25698 0 7.70127 0C12.6569 0 17.6125 0 22.5681 0C29.8819 0.0227844 37.2184 0.022784 44.5436 0.022784Z" fill="#CCCCCC"/>
<path d="M20.7222 57.4734C16.621 57.4734 12.5198 57.4734 8.41866 57.4734C7.99714 57.4734 7.58703 57.4392 7.16551 57.3937C6.27692 57.2911 5.46808 56.5165 5.31998 55.6279C5.26302 55.3089 5.25163 54.9899 5.25163 54.6595C5.25163 46.8901 5.25163 39.132 5.24023 31.3625C5.24023 30.679 5.35416 30.0524 5.80984 29.5056C6.35667 28.8448 7.3364 28.5258 8.17942 28.7879C8.88574 29.0043 9.76293 29.8701 9.74015 30.6448C9.72876 31.0777 9.79711 31.5106 9.79711 31.9549C9.79711 38.6535 9.79711 45.3635 9.79711 52.0621C9.79711 52.9051 9.79711 52.9051 10.6515 52.9051C18.3982 52.9051 26.1449 52.9279 33.8916 52.8824C35.065 52.8824 36.4434 54.033 36.2042 55.514C36.0561 56.4367 35.2473 57.2797 34.3245 57.3937C33.9144 57.4392 33.4929 57.4734 33.0714 57.4734C28.9588 57.4734 24.8462 57.4734 20.7222 57.4734Z" fill="#CCCCCC"/>
<path d="M42.0137 55.138C42.0137 53.7937 43.2554 52.4836 44.5541 52.6089C45.8756 52.7342 47.0148 53.5203 47.0148 55.1949C47.0035 56.562 45.8642 57.7012 44.5313 57.7012C43.1985 57.7012 42.0137 56.4936 42.0137 55.138Z" fill="#CCCCCC"/>
</svg>
